<?xml version="1.0" standalone="no"?>
<!DOCTYPE svg PUBLIC "-//W3C//DTD SVG 20010904//EN"
 "http://www.w3.org/TR/2001/REC-SVG-20010904/DTD/svg10.dtd">
<svg version="1.0" xmlns="http://www.w3.org/2000/svg"
 width="248.000000pt" height="248.000000pt" viewBox="0 0 248.000000 248.000000"
 preserveAspectRatio="xMidYMid meet">

<g transform="translate(0.000000,248.000000) scale(0.100000,-0.100000)"
fill="#000000" stroke="none">
<path d="M0 1603 l0 -878 99 3 98 4 24 -69 c41 -118 124 -184 262 -209 l37 -6
0 344 0 344 -57 28 c-196 95 -331 199 -390 297 -35 60 -54 117 -34 104 7 -4
10 -9 7 -12 -3 -3 -1 -10 5 -17 5 -6 27 -39 50 -73 60 -92 148 -161 333 -259
l106 -56 0 -354 c0 -276 -3 -354 -12 -354 -10 0 -9 -3 1 -9 52 -33 -92 -26
-173 8 -84 36 -145 107 -177 206 l-16 50 -76 3 -77 3 0 -158 c0 -87 4 -163 8
-169 4 -7 26 -18 50 -24 23 -7 40 -15 38 -18 -3 -2 -26 3 -52 12 -26 9 -49 16
-51 16 -2 0 -3 -81 -3 -180 l0 -180 260 0 260 0 0 129 0 130 -32 4 c-27 4 -25
4 8 4 l41 -1 1 -110 c0 -61 1 -121 1 -133 l1 -23 610 0 610 0 0 129 0 130 -32
4 c-27 4 -25 4 8 4 l41 -1 1 -110 c0 -61 1 -121 1 -133 l1 -23 350 0 350 0 0
366 c0 201 -4 363 -8 360 -5 -3 -7 -20 -4 -38 3 -19 1 -29 -4 -25 -5 5 -9 52
-10 105 -1 248 -112 390 -421 546 l-93 47 0 346 c0 270 3 344 12 335 7 -7 21
-13 32 -13 17 -1 18 -2 4 -6 -17 -4 -18 -28 -18 -323 l0 -318 88 -47 c136 -74
215 -128 276 -190 63 -65 123 -174 135 -251 5 -28 9 299 10 769 l1 817 -267 0
c-208 0 -264 -3 -255 -12 8 -8 12 -53 12 -134 l0 -123 58 -5 c123 -13 260 -37
332 -59 l75 -23 0 -179 0 -180 -87 -3 -87 -3 -34 73 c-39 86 -106 151 -176
172 -25 8 -37 15 -26 15 28 1 94 -31 135 -65 19 -16 28 -20 20 -10 -8 10 -37
34 -65 53 -32 22 -41 32 -25 28 35 -11 76 -41 105 -79 33 -43 68 -124 61 -142
-3 -7 -2 -13 2 -13 19 3 25 -2 12 -11 -10 -7 13 -10 74 -10 76 0 87 2 82 16
-3 9 -6 84 -6 168 l0 153 -72 20 c-112 32 -164 42 -277 53 -57 5 -109 10 -117
10 -11 0 -14 26 -14 135 l0 135 -75 0 c-43 0 -75 4 -75 10 0 7 -187 10 -542
10 -422 0 -539 -3 -530 -12 8 -8 12 -53 12 -134 l0 -123 58 -5 c123 -13 260
-37 332 -59 l75 -23 0 -179 0 -180 -87 -3 -87 -3 -34 73 c-39 86 -106 151
-176 172 -25 8 -37 15 -26 15 28 1 94 -31 135 -65 19 -16 28 -20 20 -10 -8 10
-37 34 -65 53 -32 22 -41 32 -25 28 34 -10 84 -48 110 -85 31 -43 62 -119 56
-136 -3 -7 -2 -13 2 -13 19 3 25 -2 12 -11 -10 -7 13 -10 74 -10 76 0 87 2 82
16 -3 9 -6 84 -6 168 l0 153 -72 20 c-112 32 -164 42 -277 53 -57 5 -109 10
-117 10 -11 0 -14 26 -14 135 l0 135 -75 0 c-43 0 -75 4 -75 10 0 6 -98 10
-275 10 l-275 0 0 -877z m545 720 c3 -148 1 -153 -50 -153 -16 0 -52 -7 -79
-15 -27 -8 -52 -13 -54 -10 -9 9 3 14 74 31 38 9 75 18 82 20 9 3 12 39 12
140 0 76 3 134 7 131 3 -4 7 -69 8 -144z m1240 0 c3 -148 1 -153 -50 -153 -16
0 -52 -7 -79 -15 -27 -8 -52 -13 -54 -10 -9 9 3 14 74 31 38 9 75 18 82 20 9
3 12 39 12 140 0 76 3 134 7 131 3 -4 7 -69 8 -144z m-1435 -185 c0 -6 -3 -9
-6 -5 -7 7 -71 -23 -119 -56 -19 -12 -24 -14 -15 -4 15 16 119 76 133 77 4 0
7 -5 7 -12z m1240 0 c0 -6 -3 -9 -6 -5 -7 7 -71 -23 -119 -56 -19 -12 -24 -14
-15 -4 15 16 119 76 133 77 4 0 7 -5 7 -12z m-1400 -81 c0 -2 -19 -21 -42 -42
l-43 -40 40 43 c36 39 45 47 45 39z m1240 0 c0 -2 -19 -21 -42 -42 l-43 -40
40 43 c36 39 45 47 45 39z m-685 -28 c16 -1 17 -2 3 -6 -17 -4 -18 -28 -18
-323 l0 -318 88 -47 c136 -74 215 -128 276 -190 93 -95 146 -227 146 -367 0
-26 -4 -49 -8 -52 -5 -3 -7 -20 -4 -38 3 -19 1 -29 -4 -25 -5 5 -9 52 -10 105
-1 248 -112 390 -421 546 l-93 47 0 346 c0 270 3 344 12 335 7 -7 21 -13 33
-13z m-198 -299 l-1 -309 -58 32 c-79 43 -143 100 -175 154 -23 39 -27 59 -29
132 -1 47 0 68 3 47 3 -30 7 -36 14 -25 7 10 8 4 4 -18 -4 -18 -3 -33 2 -33 5
0 14 -20 21 -45 14 -53 75 -124 141 -167 25 -15 49 -28 53 -28 5 0 7 123 6
274 -3 240 1 290 19 296 1 0 1 -139 0 -310z m1240 0 l-1 -309 -58 32 c-79 43
-143 100 -175 154 -23 39 -27 59 -29 132 -1 47 0 68 3 47 3 -30 7 -36 14 -25
7 10 8 4 4 -18 -4 -18 -3 -33 2 -33 5 0 14 -20 21 -45 14 -53 75 -124 141
-167 25 -15 49 -28 53 -28 5 0 7 123 6 274 -3 240 1 290 19 296 1 0 1 -139 0
-310z m-1337 257 c0 -2 -15 -13 -32 -26 l-33 -22 28 25 c26 24 37 31 37 23z
m1240 0 c0 -2 -15 -13 -32 -26 l-33 -22 28 25 c26 24 37 31 37 23z m-1623 -97
c-11 -27 -23 -48 -25 -46 -4 5 35 96 42 96 2 0 -5 -22 -17 -50z m1240 0 c-11
-27 -23 -48 -25 -46 -4 5 35 96 42 96 2 0 -5 -22 -17 -50z m-952 4 c-14 -20
-25 -41 -25 -47 0 -6 -3 -8 -6 -5 -7 7 12 45 34 71 25 28 23 20 -3 -19z m1240
0 c-14 -20 -25 -41 -25 -47 0 -6 -3 -8 -6 -5 -7 7 12 45 34 71 25 28 23 20 -3
-19z m-1556 -90 c-6 -7 -9 -20 -6 -27 3 -8 1 -20 -4 -28 -6 -10 -9 -8 -9 11 0
38 11 70 22 64 5 -3 4 -11 -3 -20z m278 -6 c-3 -7 -5 -2 -5 12 0 14 2 19 5 13
2 -7 2 -19 0 -25z m962 6 c-6 -7 -9 -20 -6 -27 3 -8 1 -20 -4 -28 -6 -10 -9
-8 -9 11 0 38 11 70 22 64 5 -3 4 -11 -3 -20z m278 -6 c-3 -7 -5 -2 -5 12 0
14 2 19 5 13 2 -7 2 -19 0 -25z m-1533 -113 c3 -8 1 -15 -4 -15 -6 0 -10 7
-10 15 0 8 2 15 4 15 2 0 6 -7 10 -15z m1240 0 c3 -8 1 -15 -4 -15 -6 0 -10 7
-10 15 0 8 2 15 4 15 2 0 6 -7 10 -15z m-1224 -86 c0 -10 -4 -19 -10 -19 -5 0
-10 12 -10 26 0 14 4 23 10 19 6 -3 10 -15 10 -26z m1240 0 c0 -10 -4 -19 -10
-19 -5 0 -10 12 -10 26 0 14 4 23 10 19 6 -3 10 -15 10 -26z m3 -46 c0 -4 5
-12 9 -18 4 -5 26 -38 49 -72 60 -92 148 -161 333 -259 l106 -56 0 -354 c0
-276 -3 -354 -12 -354 -10 0 -9 -3 1 -9 52 -33 -92 -26 -173 8 -84 36 -145
107 -177 206 l-16 50 -76 3 -77 3 0 -158 c0 -87 4 -163 8 -169 4 -7 26 -18 50
-24 23 -7 40 -15 38 -18 -3 -2 -27 4 -55 13 l-51 17 0 178 c0 153 2 179 16
184 9 3 53 6 99 6 l83 0 23 -67 c41 -118 125 -185 262 -209 l37 -6 0 344 0
344 -57 28 c-196 95 -331 199 -390 297 -29 49 -56 123 -39 107 4 -3 8 -10 9
-15z m-517 -499 c32 -19 76 -52 97 -72 43 -41 91 -127 83 -147 -3 -8 0 -15 6
-17 7 -3 8 -13 3 -28 -7 -22 -9 -18 -21 28 -19 74 -63 133 -138 187 -35 25
-66 45 -70 45 -3 0 -6 -133 -6 -296 l0 -296 33 6 c23 4 28 3 17 -4 -8 -5 -25
-10 -37 -10 -13 0 -23 -5 -23 -10 0 -6 17 -8 43 -4 51 6 31 -11 -24 -21 l-36
-7 1 341 c1 188 4 341 7 341 3 0 32 -16 65 -36z m1240 0 c32 -19 76 -52 97
-72 43 -41 91 -127 83 -147 -3 -8 0 -15 6 -17 7 -3 8 -13 3 -28 -7 -22 -9 -18
-21 28 -19 74 -63 133 -138 187 -35 25 -66 45 -70 45 -3 0 -6 -133 -6 -296 l0
-296 33 6 c23 4 28 3 17 -4 -8 -5 -25 -10 -37 -10 -13 0 -23 -5 -23 -10 0 -6
17 -8 43 -4 51 6 31 -11 -24 -21 l-36 -7 1 341 c1 188 4 341 7 341 3 0 32 -16
65 -36z m-1036 -321 c0 -19 -3 -24 -10 -17 -6 6 -8 18 -4 27 9 24 14 21 14
-10z m1240 0 c0 -19 -3 -24 -10 -17 -6 6 -8 18 -4 27 9 24 14 21 14 -10z
m-1263 -75 c-3 -7 -5 -2 -5 12 0 14 2 19 5 13 2 -7 2 -19 0 -25z m1240 0 c-3
-7 -5 -2 -5 12 0 14 2 19 5 13 2 -7 2 -19 0 -25z m-982 -69 c-8 -19 -13 -25
-9 -14 3 11 8 34 12 50 3 17 8 23 10 14 1 -9 -4 -32 -13 -50z m1240 0 c-8 -19
-13 -25 -9 -14 3 11 8 34 12 50 3 17 8 23 10 14 1 -9 -4 -32 -13 -50z m-1255
-47 c0 -5 -7 -17 -15 -28 -14 -18 -14 -17 -4 9 12 27 19 34 19 19z m1240 0 c0
-5 -7 -17 -15 -28 -14 -18 -14 -17 -4 9 12 27 19 34 19 19z m-1550 -18 c-8 -8
-23 -20 -34 -25 -13 -7 -9 -1 9 15 34 29 43 33 25 10z m1240 0 c-8 -8 -23 -20
-34 -25 -13 -7 -9 -1 9 15 34 29 43 33 25 10z m-1305 -44 c-3 -5 -12 -10 -18
-10 -7 0 -6 4 3 10 19 12 23 12 15 0z m1240 0 c-3 -5 -12 -10 -18 -10 -7 0 -6
4 3 10 19 12 23 12 15 0z m-915 -23 c0 -2 -19 -21 -42 -42 l-43 -40 40 43 c36
39 45 47 45 39z m1240 0 c0 -2 -19 -21 -42 -42 l-43 -40 40 43 c36 39 45 47
45 39z m-1394 -122 c-11 -8 -25 -15 -30 -15 -6 1 0 7 14 15 32 19 40 18 16 0z
m1240 0 c-11 -8 -25 -15 -30 -15 -6 1 0 7 14 15 32 19 40 18 16 0z m-2041 -19
c28 -8 41 -14 30 -14 -21 0 -107 25 -90 27 6 0 33 -6 60 -13z m1240 0 c28 -8
41 -14 30 -14 -21 0 -107 25 -90 27 6 0 33 -6 60 -13z m-1152 -23 c-7 -2 -19
-2 -25 0 -7 3 -2 5 12 5 14 0 19 -2 13 -5z m614 1 c-3 -3 -12 -4 -19 -1 -8 3
-5 6 6 6 11 1 17 -2 13 -5z m626 -1 c-7 -2 -19 -2 -25 0 -7 3 -2 5 12 5 14 0
19 -2 13 -5z m614 1 c-3 -3 -12 -4 -19 -1 -8 3 -5 6 6 6 11 1 17 -2 13 -5z
m-1784 -11 c-7 -2 -21 -2 -30 0 -10 3 -4 5 12 5 17 0 24 -2 18 -5z m504 1 c-3
-3 -12 -4 -19 -1 -8 3 -5 6 6 6 11 1 17 -2 13 -5z m736 -1 c-7 -2 -21 -2 -30
0 -10 3 -4 5 12 5 17 0 24 -2 18 -5z m504 1 c-3 -3 -12 -4 -19 -1 -8 3 -5 6 6
6 11 1 17 -2 13 -5z m-1669 -11 c-10 -2 -26 -2 -35 0 -10 3 -2 5 17 5 19 0 27
-2 18 -5z m375 0 c-7 -2 -19 -2 -25 0 -7 3 -2 5 12 5 14 0 19 -2 13 -5z m865
0 c-10 -2 -26 -2 -35 0 -10 3 -2 5 17 5 19 0 27 -2 18 -5z m375 0 c-7 -2 -19
-2 -25 0 -7 3 -2 5 12 5 14 0 19 -2 13 -5z m-1311 -133 c-2 -73 -7 -130 -13
-130 -10 0 -10 -3 -13 140 -2 113 -1 120 17 120 9 0 11 -34 9 -130z m1240 0
c-2 -73 -7 -130 -13 -130 -10 0 -10 -3 -13 140 -2 113 -1 120 17 120 9 0 11
-34 9 -130z"/>
<path d="M986 1857 c3 -10 9 -15 12 -12 3 3 0 11 -7 18 -10 9 -11 8 -5 -6z"/>
<path d="M2226 1857 c3 -10 9 -15 12 -12 3 3 0 11 -7 18 -10 9 -11 8 -5 -6z"/>
</g>
</svg>
