<?xml version="1.0" standalone="no"?>
<!DOCTYPE svg PUBLIC "-//W3C//DTD SVG 20010904//EN"
 "http://www.w3.org/TR/2001/REC-SVG-20010904/DTD/svg10.dtd">
<svg version="1.0" xmlns="http://www.w3.org/2000/svg"
 width="185.000000pt" height="310.000000pt" viewBox="0 0 185.000000 310.000000"
 preserveAspectRatio="xMidYMid meet">

<g transform="translate(0.000000,310.000000) scale(0.100000,-0.100000)"
fill="#000000" stroke="none">
<path d="M0 1550 l0 -1550 925 0 925 0 0 1550 0 1550 -925 0 -925 0 0 -1550z
m1319 1350 c143 -52 296 -163 329 -242 14 -34 8 -38 -47 -38 -79 1 -127 17
-173 60 -24 22 -46 40 -50 40 -7 0 -168 196 -168 205 0 10 27 4 109 -25z
m-866 -417 c-7 -2 -21 -2 -30 0 -10 3 -4 5 12 5 17 0 24 -2 18 -5z m1007 -424
c0 -46 -23 -99 -42 -99 -14 0 -18 5 -14 18 3 9 8 31 12 47 12 52 44 76 44 34z
m-460 -1497 c45 -6 55 -10 55 -26 0 -38 -101 -75 -215 -77 -73 -2 -75 -1 -102
32 -34 40 -35 51 -5 65 24 13 181 16 267 6z m-195 -332 c-3 -5 -13 -10 -21
-10 -8 0 -12 5 -9 10 3 6 13 10 21 10 8 0 12 -4 9 -10z"/>
</g>
</svg>
